<svg width="64" height="64" viewBox="0 0 64 64" fill="none" xmlns="http://www.w3.org/2000/svg">
  <!-- Background shield -->
  <rect width="64" height="64" rx="8" fill="#1A9FCC"/>
  
  <!-- Stars -->
  <path d="M16 12l1.5 4.5h4.5l-3.5 2.5 1.5 4.5-3.5-2.5-3.5 2.5 1.5-4.5-3.5-2.5h4.5z" fill="#D4AF37"/>
  <path d="M32 12l1.5 4.5h4.5l-3.5 2.5 1.5 4.5-3.5-2.5-3.5 2.5 1.5-4.5-3.5-2.5h4.5z" fill="#D4AF37"/>
  <path d="M48 12l1.5 4.5h4.5l-3.5 2.5 1.5 4.5-3.5-2.5-3.5 2.5 1.5-4.5-3.5-2.5h4.5z" fill="#D4AF37"/>
  
  <!-- Seagull -->
  <path d="M32 30c-3 0-5.5 1.5-7 3 1.5 1.5 4 2.5 7 2.5s5.5-1 7-2.5c-1.5-1.5-4-3-7-3z" fill="white"/>
  <path d="M24 32c-2 1-4 3-6 5 2 0 4-1.5 6-2.5v-2.5z" fill="white"/>
  <path d="M40 32c2 1 4 3 6 5-2 0-4-1.5-6-2.5v-2.5z" fill="white"/>
  <path d="M33 32l1 1-1 1-1-1z" fill="#FF6B35"/>
  
  <!-- Waves -->
  <path d="M8 48c2-2 4-2 6 0s4 2 6 0 4-2 6 0 4 2 6 0 4-2 6 0 4 2 6 0 4-2 6 0v8H8v-8z" fill="white"/>
</svg>

